<svg xmlns="http://www.w3.org/2000/svg"
     width="1200" height="460" viewBox="0 0 1200 460"
     role="img" aria-labelledby="title desc">
  <title id="title">AI-продукты до продакшена</title>
  <desc id="desc">Боты, агенты, интерфейсы и данные собраны в управляемую рабочую систему.</desc>

  <defs>
    <linearGradient id="background" x1="0" y1="0" x2="1" y2="1">
      <stop offset="0" stop-color="#080A12"/>
      <stop offset=".5" stop-color="#0A1020"/>
      <stop offset="1" stop-color="#15122B"/>
    </linearGradient>
    <radialGradient id="cyan-glow">
      <stop offset="0" stop-color="#44D7F4" stop-opacity=".34"/>
      <stop offset="1" stop-color="#44D7F4" stop-opacity="0"/>
    </radialGradient>
    <radialGradient id="violet-glow">
      <stop offset="0" stop-color="#9C7CFF" stop-opacity=".34"/>
      <stop offset="1" stop-color="#9C7CFF" stop-opacity="0"/>
    </radialGradient>
    <radialGradient id="orange-glow">
      <stop offset="0" stop-color="#FF9D5C" stop-opacity=".22"/>
      <stop offset="1" stop-color="#FF9D5C" stop-opacity="0"/>
    </radialGradient>
    <linearGradient id="glass" x1="0" y1="0" x2="1" y2="1">
      <stop offset="0" stop-color="#FFFFFF" stop-opacity=".17"/>
      <stop offset=".5" stop-color="#FFFFFF" stop-opacity=".07"/>
      <stop offset="1" stop-color="#FFFFFF" stop-opacity=".025"/>
    </linearGradient>
    <linearGradient id="accent" x1="0" y1="0" x2="1" y2="1">
      <stop offset="0" stop-color="#52E6FF"/>
      <stop offset=".52" stop-color="#A88BFF"/>
      <stop offset="1" stop-color="#FFAD68"/>
    </linearGradient>
  </defs>

  <rect width="1200" height="460" rx="38" fill="url(#background)"/>
  <ellipse cx="1060" cy="50" rx="340" ry="260" fill="url(#violet-glow)"/>
  <ellipse cx="760" cy="470" rx="430" ry="230" fill="url(#cyan-glow)"/>
  <ellipse cx="70" cy="-20" rx="260" ry="190" fill="url(#orange-glow)"/>

  <g id="copy" transform="translate(62 48)"
     font-family="'Avenir Next','Segoe UI Variable Display','Segoe UI',sans-serif">
    <text x="0" y="20" fill="#C2CBDF" font-size="19" font-weight="750"
          letter-spacing="4">
      ПРОДУКТОВАЯ РАЗРАБОТКА · AI · АВТОМАТИЗАЦИЯ
    </text>
    <text x="0" y="102" fill="#F7F9FF" font-size="64" font-weight="850"
          letter-spacing="-2">
      AI-ПРОДУКТЫ
    </text>
    <text x="0" y="172" fill="#F7F9FF" font-size="64" font-weight="850"
          letter-spacing="-2">
      ДО ПРОДАКШЕНА
    </text>
    <text x="2" y="231" fill="#D9E1F2" font-size="29" font-weight="650">
      Боты, агенты, интерфейсы и данные.
    </text>
    <text x="2" y="270" fill="#8F9BB1" font-size="25" font-weight="520">
      Один маршрут. Проверяемый результат.
    </text>

    <g transform="translate(0 315)"
       font-family="ui-monospace,SFMono-Regular,Menlo,monospace"
       font-size="17" font-weight="750">
      <g>
        <rect width="150" height="48" rx="24" fill="url(#glass)"/>
        <circle cx="24" cy="24" r="10" fill="none" stroke="#52E6FF"
                stroke-width="2.2"/>
        <path d="M14 24h20M24 14c4 4 4 16 0 20M24 14c-4 4-4 16 0 20"
              fill="none" stroke="#52E6FF" stroke-width="1.8"
              stroke-linecap="round"/>
        <text x="44" y="30" fill="#F1F5FF">УДАЛЁННО</text>
      </g>
      <g transform="translate(166)">
        <rect width="166" height="48" rx="24" fill="url(#glass)"/>
        <circle cx="24" cy="24" r="10" fill="none" stroke="#A88BFF"
                stroke-width="2.2"/>
        <path d="M19 29l10-10M22 19h7v7" fill="none"
              stroke="#A88BFF" stroke-width="2.2" stroke-linecap="round"
              stroke-linejoin="round"/>
        <text x="44" y="30" fill="#F1F5FF">ПРОДАКШЕН</text>
      </g>
      <g transform="translate(348)">
        <rect width="238" height="48" rx="24" fill="url(#glass)"/>
        <circle cx="22" cy="20" r="5" fill="none" stroke="#FFAD68"
                stroke-width="2"/>
        <path d="M14 34c1-8 15-8 16 0M30 23l4 4 7-8" fill="none"
              stroke="#FFAD68" stroke-width="2.2" stroke-linecap="round"
              stroke-linejoin="round"/>
        <text x="46" y="30" fill="#F1F5FF">КОНТРОЛЬ ЧЕЛОВЕКА</text>
      </g>
    </g>
  </g>

  <g id="product-system" transform="translate(930 215)"
     font-family="'Avenir Next','Segoe UI Variable Display','Segoe UI',sans-serif">
    <g fill="none" stroke="url(#accent)" stroke-width="2.2"
       stroke-linecap="round" opacity=".55">
      <path d="M0-70V-97"/>
      <path d="M-61-33L-99-53"/>
      <path d="M61-33L99-53"/>
      <path d="M-61 33L-99 54"/>
      <path d="M61 33L99 54"/>
      <path d="M0 70V97"/>
    </g>

    <circle r="78" fill="#FFFFFF" fill-opacity=".035"/>
    <circle r="68" fill="url(#glass)"/>
    <path d="M0-39 23-26 0-13-23-26ZM-23-20 0-7v26l-23-13ZM23-20 0-7v26l23-13Z"
          fill="none" stroke="url(#accent)" stroke-width="3"
          stroke-linejoin="round"/>
    <text x="0" y="40" text-anchor="middle" fill="#F7F9FF"
          font-size="17" font-weight="800" letter-spacing=".8">РАБОЧАЯ</text>
    <text x="0" y="59" text-anchor="middle" fill="#C8D2E6"
          font-size="15" font-weight="750" letter-spacing="1.5">СИСТЕМА</text>

    <g transform="translate(0 -144)">
      <circle r="49" fill="#FFFFFF" fill-opacity=".035"/>
      <circle r="41" fill="#1EAAF1" fill-opacity=".28"/>
      <path d="M-17-10 17-22 7 12 0 2-9 9-6-2Z"
            fill="none" stroke="#EAF8FF" stroke-width="3"
            stroke-linejoin="round"/>
      <text x="0" y="31" text-anchor="middle" fill="#F5F8FF"
            font-size="16" font-weight="800">TELEGRAM</text>
    </g>

    <g transform="translate(-142 -76)">
      <circle r="49" fill="#FFFFFF" fill-opacity=".035"/>
      <circle r="41" fill="#6A82FF" fill-opacity=".25"/>
      <path d="M-13-20h-8v27h8M13-20h8v27h-8M-7-7h14"
            fill="none" stroke="#EEF2FF" stroke-width="3"
            stroke-linecap="round" stroke-linejoin="round"/>
      <circle cx="-5" cy="-7" r="2.5" fill="#EEF2FF"/>
      <circle cx="5" cy="-7" r="2.5" fill="#EEF2FF"/>
      <text x="0" y="31" text-anchor="middle" fill="#F5F8FF"
            font-size="16" font-weight="800">API</text>
    </g>

    <g transform="translate(142 -76)">
      <circle r="49" fill="#FFFFFF" fill-opacity=".035"/>
      <circle r="41" fill="#A06CF8" fill-opacity=".26"/>
      <rect x="-18" y="-21" width="36" height="27" rx="8"
            fill="none" stroke="#F5EEFF" stroke-width="3"/>
      <path d="M0-27v6M-11 12V6M11 12V6"
            fill="none" stroke="#F5EEFF" stroke-width="3"
            stroke-linecap="round"/>
      <circle cx="-8" cy="-8" r="2.7" fill="#F5EEFF"/>
      <circle cx="8" cy="-8" r="2.7" fill="#F5EEFF"/>
      <path d="M-7-1h14" stroke="#F5EEFF" stroke-width="3"
            stroke-linecap="round"/>
      <text x="0" y="31" text-anchor="middle" fill="#F5F8FF"
            font-size="16" font-weight="800">БОТЫ</text>
    </g>

    <g transform="translate(-142 76)">
      <circle r="49" fill="#FFFFFF" fill-opacity=".035"/>
      <circle r="41" fill="#F1A24D" fill-opacity=".24"/>
      <path d="M-15-24H7l11 11V10h-33Z"
            fill="none" stroke="#FFF2E1" stroke-width="3"
            stroke-linejoin="round"/>
      <path d="M7-24v11h11M-8-5H10M-8 3H7"
            fill="none" stroke="#FFF2E1" stroke-width="3"
            stroke-linecap="round"/>
      <text x="0" y="31" text-anchor="middle" fill="#F5F8FF"
            font-size="16" font-weight="800">ФАЙЛЫ</text>
    </g>

    <g transform="translate(142 76)">
      <circle r="49" fill="#FFFFFF" fill-opacity=".035"/>
      <circle r="41" fill="#F06C82" fill-opacity=".24"/>
      <circle cx="-10" cy="-15" r="8" fill="none"
              stroke="#FFF0F3" stroke-width="3"/>
      <circle cx="11" cy="-17" r="6" fill="none"
              stroke="#FFF0F3" stroke-width="3"/>
      <path d="M-24 9c1-15 29-15 30 0M5 7c1-11 20-11 21 0"
            fill="none" stroke="#FFF0F3" stroke-width="3"
            stroke-linecap="round"/>
      <text x="0" y="31" text-anchor="middle" fill="#F5F8FF"
            font-size="16" font-weight="800">АГЕНТЫ</text>
    </g>

    <g transform="translate(0 144)">
      <circle r="49" fill="#FFFFFF" fill-opacity=".035"/>
      <circle r="41" fill="#3DD6A0" fill-opacity=".23"/>
      <path d="M0-25c7 6 13 7 20 8v11c0 12-8 20-20 26-12-6-20-14-20-26v-11c7-1 13-2 20-8Z"
            fill="none" stroke="#E9FFF7" stroke-width="3"
            stroke-linejoin="round"/>
      <path d="m-9-5 6 6L10-11" fill="none"
            stroke="#E9FFF7" stroke-width="3"
            stroke-linecap="round" stroke-linejoin="round"/>
      <text x="0" y="31" text-anchor="middle" fill="#F5F8FF"
            font-size="16" font-weight="800">ПРОВЕРКА</text>
    </g>

    <g fill="#FFFFFF">
      <circle cx="-211" cy="-28" r="3" opacity=".5"/>
      <circle cx="205" cy="3" r="4" opacity=".38"/>
      <path d="M-205-108h18M-196-117v18" stroke="#52E6FF"
            stroke-width="2" stroke-linecap="round" opacity=".45"/>
      <path d="M188 119h16M196 111v16" stroke="#FFAD68"
            stroke-width="2" stroke-linecap="round" opacity=".45"/>
    </g>
  </g>

  <rect x="62" y="423" width="1076" height="2" rx="1"
        fill="url(#accent)" opacity=".52"/>
</svg>
